# AST/ASF file generated using VICON BodyLanguage
# -----------------------------------------------
:version 1.10
:name VICON
:units
  mass 1.0
  length 0.45
  angle deg
:documentation
   .ast/.asf automatically generated from VICON data using
   VICON BodyBuilder and BodyLanguage model FoxedUp or BRILLIANT.MOD
:root
   order TX TY TZ RX RY RZ
   axis XYZ
   position 0 0 0  
   orientation 0 0 0 
:bonedata
  begin
     id 1 
     name lhipjoint
     direction 0.646657 -0.683706 0.338203 
     length 2.4948 
     axis 0 0 0  XYZ
  end
  begin
     id 2 
     name lfemur
     direction 0.34202 -0.939693 0  
     length 6.79491  
     axis 0 0 20  XYZ
    dof rx ry rz
    limits (-160.0 20.0)
           (-70.0 70.0)
           (-60.0 70.0)
  end
  begin
     id 3 
     name ltibia
     direction 0.34202 -0.939693 0   
     length 7.56807   
     axis 0 0 20   XYZ
    dof rx
    limits (-10.0 170.0)
  end
  begin
     id 4 
     name lfoot
     direction 0.0679796 -0.186772 0.980048   
     length 2.53018   
     axis -90 7.62852e-016 20   XYZ
    dof rx rz
    limits (-45.0 90.0)
           (-70.0 20.0)
  end
  begin
     id 5 
     name ltoes
     direction 1.53625e-011 -4.21881e-011 1   
     length 1.26912   
     axis -90 7.62852e-016 20   XYZ
    dof rx
    limits (-90.0 20.0)
  end
  begin
     id 6 
     name rhipjoint
     direction -0.618868 -0.704065 0.348274   
     length 2.42265  
     axis 0 0 0  XYZ 
  end
  begin
     id 7 
     name rfemur
     direction -0.34202 -0.939693 0   
     length 6.73814   
     axis 0 0 -20   XYZ
    dof rx ry rz
    limits (-160.0 20.0)
           (-70.0 70.0)
           (-70.0 60.0)
  end
  begin
     id 8 
     name rtibia
     direction -0.34202 -0.939693 0   
     length 7.66799   
     axis 0 0 -20   XYZ
    dof rx
    limits (-10.0 170.0)
 end
 begin
     id 9 
     name rfoot
     direction -0.0727352 -0.199838 0.977125   
     length 2.57224  
     axis -90 -7.62852e-016 -20   XYZ
    dof rx rz
    limits (-45.0 90.0)
           (-20.0 70.0)
  end
  begin
     id 10 
     name rtoes
     direction -1.53501e-011 -4.21858e-011 1   
     length 1.28858   
     axis -90 -7.62852e-016 -20   XYZ
    dof rx
    limits (-90.0 20.0)
  end
  begin
     id 11 
     name lowerback
     direction -0.0172471 0.995767 -0.0902851   
     length 2.20206   
     axis 0 0 0   XYZ
    dof rx ry rz
    limits (-20.0 45.0)
           (-30.0 30.0)
           (-30.0 30.0)
  end
  begin
     id 12 
     name upperback
     direction -0.000110737 0.999714 0.0239043   
     length 2.19523   
     axis 0 0 0   XYZ
    dof rx ry rz
    limits (-20.0 45.0)
           (-30.0 30.0)
           (-30.0 30.0)
  end
  begin
     id 13 
     name thorax
     direction 0.00704869 0.997783 0.0661741   
     length 2.21977   
     axis 0 0 0   XYZ
    dof rx ry rz
    limits (-20.0 45.0)
           (-30.0 30.0)
           (-30.0 30.0)
  end
  begin
     id 14 
     name lowerneck
     direction -0.00407501 0.995527 0.0943846   
     length 1.83142   
     axis 0 0 0   XYZ
    dof rx ry rz
    limits (-20.0 45.0)
           (-30.0 30.0)
           (-30.0 30.0)
  end
  begin
     id 15 
     name upperneck
     direction 0.0640586 0.986486 -0.150807   
     length 1.84616   
     axis 0 0 0   XYZ
    dof rx ry rz
    limits (-20.0 45.0)
           (-30.0 30.0)
           (-30.0 30.0)
  end
  begin
     id 16
     name head
     direction 0.0188017 0.99791 -0.0618239  
     length 1.85932  
     axis 0 0 0   XYZ
    dof rx ry rz
    limits (-20.0 45.0)
           (-30.0 30.0)
           (-30.0 30.0)
  end
  begin
     id 17 
     name lclavicle
     direction 0.976074 0.206905 0.066852  
     length 3.81043  
     axis 0 0 0   XYZ
    dof ry rz
    limits (-20.0 10.0)
           (0.0 20.0)
  end
  begin
     id 18 
     name lhumerus
     direction 1 -4.48971e-011 1.86916e-027   
     length 5.37587   
     axis 180 -30 -90   XYZ
    dof rx ry rz
    limits (-60.0 90.0)
           (-90.0 90.0)
           (-90.0 90.0)
  end
  begin
     id 19
     name lradius
     direction 1 -4.48968e-011 1.69187e-027   
     length 3.35977   
     axis 180 -30 -90   XYZ
    dof rx
    limits (-10.0 170.0)
  end
  begin
     id 20
     name lwrist
     direction 1 -4.48968e-011 5.8978e-027   
     length 1.67988   
     axis -3.27506e-015 90 90   XYZ
    dof ry
    limits (-180.0 0.0)
 end
  begin
     id 21 
     name lhand
     direction 1 -4.49028e-011 1.18071e-026   
     length 0.561859   
     axis -7.52654e-015 90 90   XYZ
    dof rx rz
    limits (-90.0 90.0)
           (-45.0 45.0)
  end
  begin
     id 22 
     name lfingers
     direction 1 -4.48927e-011 2.35758e-026   
     length 0.452985   
     axis -1.50534e-014 90 90   XYZ
    dof rx
    limits (0.0 90.0)
  end
  begin
     id 23
     name lthumb
     direction 0.707107 -6.34898e-011 0.707107   
     length 0.650399   
     axis -90 45 5.69224e-014   XYZ
    dof rx rz
    limits (-45.0 45.0)
           (-45.0 45.0)
  end
  begin
     id 24 
     name rclavicle
     direction -0.988403 0.151789 0.00439714   
     length 3.6942  
     axis 0 0 0   XYZ 
    dof ry rz
    limits (-10.0 20.0)
           (-20.0 0.0)
  end
  begin
     id 25 
     name rhumerus
     direction -1 -4.48978e-011 1.62495e-027  
     length 5.22819   
     axis 180 30 90   XYZ
    dof rx ry rz
    limits (-90.0 60.0)
           (-90.0 90.0)
           (-90.0 90.0)
  end
  begin
     id 26 
     name rradius
     direction -1 -4.48961e-011 3.47796e-027   
     length 3.40764   
     axis 180 30 90   XYZ
    dof rx
    limits (-10.0 170.0)
  end
  begin
     id 27 
     name rwrist
     direction -1 -4.48949e-011 5.89602e-027   
     length 1.70382   
     axis -3.27506e-015 -90 -90   XYZ
    dof ry
    limits (-180.0 0.0)
  end
  begin
     id 28
     name rhand
     direction -1 -4.48977e-011 1.17973e-026   
     length 0.583255   
     axis -7.52654e-015 -90 -90   XYZ
    dof rx rz
    limits (-90.0 90.0)
           (-45.0 45.0)
  end
  begin
     id 29
     name rfingers
     direction -1 -4.49099e-011 2.36408e-026   
     length 0.470235   
     axis -1.50534e-014 -90 -90   XYZ
    dof rx
    limits (0.0 90.0)
  end
  begin
     id 30
     name rthumb
     direction -0.707107 -6.35011e-011 0.707107   
     length 0.675167   
     axis -90 -45 -5.69224e-014   XYZ
    dof rx rz
    limits (-45.0 45.0)
           (-45.0 45.0)
  end
:hierarchy
  begin
    root lhipjoint rhipjoint lowerback
    lhipjoint lfemur
    lfemur ltibia
    ltibia lfoot
    lfoot ltoes
    rhipjoint rfemur
    rfemur rtibia
    rtibia rfoot
    rfoot rtoes
    lowerback upperback
    upperback thorax
    thorax lowerneck lclavicle rclavicle
    lowerneck upperneck
    upperneck head
    lclavicle lhumerus
    lhumerus lradius
    lradius lwrist
    lwrist lhand lthumb
    lhand lfingers
    rclavicle rhumerus
    rhumerus rradius
    rradius rwrist
    rwrist rhand rthumb
    rhand rfingers
  end

#!OML:ASF G:\JayActor3\Patient Classification 1\Patient 1\Session 2\male.ASF
:FULLY-SPECIFIED
:DEGREES
554
root 30.7113 16.419 -7.13458 34.2979 -77.7871 -30.1359
lowerback 5.24491 6.197 10.294
upperback 3.05281 8.5646 1.9806
thorax 1.47589 4.38596 -3.86119
lowerneck -0.70379 16.1127 8.75145
upperneck 2.35516 21.6386 -7.39446
head 2.80655 10.7949 -2.95681
rclavicle -2.46493e-014 -9.54166e-015
rhumerus -20.6298 18.8726 -79.8998
rradius 75.3793
rwrist -0.125046
rhand -34.125 9.34542
rfingers 7.12502
rthumb -7.30024 -20.5086
lclavicle -2.46493e-014 -9.54166e-015
lhumerus -44.562 -25.953 94.4531
lradius 60.623
lwrist 10.4571
lhand -22.2479 15.2152
lfingers 7.12502
lthumb 4.16937 45.1542
rfemur -0.293549 -9.42295 33.2498
rtibia 24.9076
rfoot -29.7122 -7.48945
rtoes 16.54
lfemur -45.2673 3.71175 -15.9664
ltibia 59.8072
lfoot -6.1339 -7.99258
ltoes -12.7644
555
root 30.5673 16.4043 -7.14454 34.5209 -77.7577 -30.3551
lowerback 5.14078 6.32633 10.4104
upperback 3.05752 8.72803 1.94366
thorax 1.58655 4.4751 -3.94348
lowerneck -0.68306 16.1034 8.70875
upperneck 2.29634 21.6218 -7.33001
head 2.76671 10.7876 -2.93709
rclavicle -1.33186e-014 7.15625e-015
rhumerus -20.3413 19.1076 -79.8493
rradius 75.4971
rwrist -0.146777
rhand -34.0689 9.30678
rfingers 7.12502
rthumb -7.2461 -20.5492
lclavicle -1.33186e-014 7.15625e-015
lhumerus -45.242 -25.9249 94.1868
lradius 60.6884
lwrist 10.5078
lhand -21.961 15.1586
lfingers 7.12502
lthumb 4.44641 45.0919
rfemur 0.427759 -9.59618 33.3475
rtibia 24.5352
rfoot -29.5677 -7.26856
rtoes 16.5628
lfemur -44.9916 3.84622 -16.3359
ltibia 57.2317
lfoot -6.48286 -8.01888
ltoes -13.2867
556
root 30.4205 16.3913 -7.15248 34.788 -77.7949 -30.6165
lowerback 5.03511 6.46783 10.5068
upperback 3.04861 8.90833 1.88952
thorax 1.68663 4.57208 -4.0325
lowerneck -0.662063 16.0986 8.67665
upperneck 2.28164 21.6122 -7.25144
head 2.74206 10.7839 -2.91195
rclavicle 1.00386e-013 8.74653e-015
rhumerus -20.081 19.3269 -79.8187
rradius 75.5797
rwrist -0.162347
rhand -34 9.28362
rfingers 7.12502
rthumb -7.17953 -20.5746
lclavicle 1.00386e-013 8.74653e-015
lhumerus -45.9318 -25.9184 93.9256
lradius 60.7898
lwrist 10.6287
lhand -21.6676 15.1479
lfingers 7.12502
lthumb 4.72971 45.0751
rfemur 1.1211 -9.74209 33.3956
rtibia 24.2452
rfoot -29.3744 -7.03968
rtoes 16.4311
lfemur -44.6115 4.09108 -16.7403
ltibia 54.7781
lfoot -6.84505 -7.97442
ltoes -13.7637
557
root 30.2706 16.3815 -7.15807 35.1614 -77.9196 -30.9775
lowerback 4.92295 6.62916 10.5822
upperback 3.02861 9.11489 1.81712
thorax 1.78306 4.68192 -4.12755
lowerneck -0.653274 16.1004 8.64462
upperneck 2.31213 21.6118 -7.16001
head 2.73411 10.7846 -2.87896
rclavicle 9.93923e-016 2.38542e-014
rhumerus -19.8428 19.5398 -79.8061
rradius 75.621
rwrist -0.194781
rhand -33.9151 9.27355
rfingers 7.12502
rthumb -7.09765 -20.5874
lclavicle 9.93923e-016 2.38542e-014
lhumerus -46.6246 -25.9286 93.6685
lradius 60.9239
lwrist 10.793
lhand -21.3673 15.1617
lfingers 7.12502
lthumb 5.01974 45.0822
rfemur 1.78188 -9.83518 33.3886
rtibia 24.0396
rfoot -29.1322 -6.80388
rtoes 16.1835
lfemur -44.1421 4.46563 -17.1842
ltibia 52.4844
lfoot -7.19945 -7.84481
ltoes -14.1588
558
root 30.1184 16.3754 -7.16172 35.6032 -78.1251 -31.3923
lowerback 4.80566 6.80706 10.6274
upperback 2.99309 9.34394 1.72232
thorax 1.86913 4.80228 -4.22858
lowerneck -0.655955 16.1061 8.62094
upperneck 2.37981 21.6167 -7.05717
head 2.74086 10.7877 -2.84048
rclavicle 9.48203e-014 3.65764e-014
rhumerus -19.637 19.7444 -79.8189
rradius 75.6245
rwrist -0.254239
rhand -33.8283 9.28678
rfingers 7.12502
rthumb -7.01387 -20.577
lclavicle 9.48203e-014 3.65764e-014
lhumerus -47.3251 -25.9545 93.411
lradius 61.0949
lwrist 10.9667
lhand -21.0609 15.1964
lfingers 7.12502
lthumb 5.31553 45.1097
rfemur 2.40044 -9.85303 33.3291
rtibia 23.9157
rfoot -28.8291 -6.58224
rtoes 15.8078
lfemur -43.6068 4.95051 -17.6707
ltibia 50.38
lfoot -7.50605 -7.63212
ltoes -14.459
559
root 29.9639 16.3736 -7.16339 36.1214 -78.4007 -31.8692
lowerback 4.68277 6.9984 10.648
upperback 2.94352 9.59131 1.60643
thorax 1.9468 4.93121 -4.33685
lowerneck -0.664047 16.1129 8.61588
upperneck 2.4673 21.6234 -6.96066
head 2.75878 10.7915 -2.80498
rclavicle 4.13472e-014 -7.95139e-016
rhumerus -19.4695 19.9327 -79.8568
rradius 75.6022
rwrist -0.305492
rhand -33.7427 9.2827
rfingers 7.12502
rthumb -6.93122 -20.5838
lclavicle 4.13472e-014 -7.95139e-016
lhumerus -48.0291 -25.9862 93.1493
lradius 61.3014
lwrist 11.1187
lhand -20.7484 15.2311
lfingers 7.12502
lthumb 5.61731 45.1366
rfemur 2.9739 -9.77755 33.2254
rtibia 23.8761
rfoot -28.4631 -6.38555
rtoes 15.3293
lfemur -43.0107 5.5172 -18.1837
ltibia 48.4803
lfoot -7.72347 -7.36399
ltoes -14.6473
560
root 29.8071 16.3764 -7.16312 36.6642 -78.7332 -32.3632
lowerback 4.55836 7.19817 10.6397
upperback 2.88347 9.85047 1.47128
thorax 2.01558 5.06542 -4.44868
lowerneck -0.672973 16.1174 8.63358
upperneck 2.56044 21.6272 -6.87178
head 2.78253 10.7941 -2.77485
rclavicle 4.33351e-014 -4.77083e-015
rhumerus -19.3479 20.1012 -79.9157
rradius 75.5639
rwrist -0.3387
rhand -33.6671 9.26981
rfingers 7.12502
rthumb -6.85824 -20.5991
lclavicle 4.33351e-014 -4.77083e-015
lhumerus -48.7335 -26.0213 92.8857
lradius 61.5432
lwrist 11.2393
lhand -20.4377 15.262
lfingers 7.12502
lthumb 5.9172 45.1593
rfemur 3.50014 -9.60502 33.0775
rtibia 23.9342
rfoot -28.0334 -6.2192
rtoes 14.7037
lfemur -42.3494 6.12761 -18.7145
ltibia 46.7869
lfoot -7.81634 -7.07098
ltoes -14.7244
561
root 29.6478 16.384 -7.1611 37.1679 -79.104 -32.823
lowerback 4.43381 7.39752 10.5963
upperback 2.82191 10.1087 1.32445
thorax 2.07962 5.1987 -4.55304
lowerneck -0.696686 16.1226 8.64795
upperneck 2.65502 21.6301 -6.77007
head 2.8071 10.796 -2.73901
rclavicle 3.86636e-014 1.19271e-014
rhumerus -19.2776 20.2548 -79.9878
rradius 75.5253
rwrist -0.348513
rhand -33.6035 9.25379
rfingers 7.12502
rthumb -6.79683 -20.6171
lclavicle 3.86636e-014 1.19271e-014
lhumerus -49.4304 -26.0524 92.6233
lradius 61.8167
lwrist 11.3348
lhand -20.1366 15.2934
lfingers 7.12502
lthumb 6.20797 45.1825
rfemur 3.97408 -9.34898 32.8857
rtibia 24.1197
rfoot -27.5369 -6.08043
rtoes 13.9227
lfemur -41.5996 6.73479 -19.2449
ltibia 45.2854
lfoot -7.75696 -6.80244
ltoes -14.5868
562
root 29.4855 16.3956 -7.15759 37.4626 -79.4651 -33.0858
lowerback 4.29865 7.57855 10.5144
upperback 2.76443 10.3403 1.17495
thorax 2.14386 5.31834 -4.63806
lowerneck -0.718161 16.1267 8.67137
upperneck 2.73529 21.6311 -6.67377
head 2.82812 10.7972 -2.70708
rclavicle 3.47873e-015 -3.81667e-014
rhumerus -19.271 20.3946 -80.0676
rradius 75.5013
rwrist -0.333182
rhand -33.5666 9.25608
rfingers 7.12502
rthumb -6.76116 -20.616
lclavicle 3.47873e-015 -3.81667e-014
lhumerus -50.1166 -26.0842 92.3726
lradius 62.12
lwrist 11.427
lhand -19.8621 15.3209
lfingers 7.12502
lthumb 6.47299 45.202
rfemur 4.37283 -9.0681 32.6565
rtibia 24.4747
rfoot -26.9782 -5.96162
rtoes 12.9792
lfemur -40.7506 7.27152 -19.7608
ltibia 43.95
lfoot -7.52777 -6.61895
ltoes -13.9246
563
root 29.32 16.4113 -7.15306 37.4923 -79.7979 -33.1034
lowerback 4.15066 7.73443 10.3909
upperback 2.71856 10.5352 1.03318
thorax 2.2128 5.41934 -4.69128
lowerneck -0.740088 16.1333 8.68604
upperneck 2.79709 21.6344 -6.57152
head 2.84109 10.7996 -2.67278
rclavicle 6.25178e-014 1.98785e-014
rhumerus -19.3268 20.5331 -80.1454
rradius 75.5016
rwrist -0.302234
rhand -33.561 9.28021
rfingers 7.12502
rthumb -6.7558 -20.592
lclavicle 6.25178e-014 1.98785e-014
lhumerus -50.7774 -26.118 92.144
lradius 62.4377
lwrist 11.543
lhand -19.6309 15.3445
lfingers 7.12502
lthumb 6.69611 45.2186
rfemur 4.67015 -8.81437 32.3895
rtibia 25.0514
rfoot -26.3479 -5.83601
rtoes 11.8994
lfemur -39.787 7.70395 -20.2444
ltibia 42.7457
lfoot -7.16497 -6.48565
ltoes -12.5554
564
root 29.1517 16.4302 -7.14798 37.144 -80.0701 -32.7695
lowerback 3.99707 7.85493 10.2311
upperback 2.6831 10.6809 0.904053
thorax 2.27876 5.49504 -4.71274
lowerneck -0.749781 16.1396 8.69303
upperneck 2.83947 21.637 -6.46015
head 2.8429 10.802 -2.63677
rclavicle 1.39547e-013 1.19271e-014
rhumerus -19.456 20.6691 -80.2197
rradius 75.5316
rwrist -0.261358
rhand -33.5928 9.32844
rfingers 7.12502
rthumb -6.78645 -20.5428
lclavicle 1.39547e-013 1.19271e-014
lhumerus -51.4088 -26.1693 91.9477
lradius 62.7582
lwrist 11.7054
lhand -19.4565 15.381
lfingers 7.12502
lthumb 6.86453 45.2497
rfemur 4.83483 -8.67212 32.081
rtibia 25.9018
rfoot -25.6201 -5.67148
rtoes 10.7333
lfemur -38.6959 7.97872 -20.6727
ltibia 41.6378
lfoot -6.78672 -6.31269
ltoes -10.5809
565
root 28.9806 16.452 -7.14227 36.4741 -80.2769 -32.1447
lowerback 3.8409 7.94088 10.0487
upperback 2.66155 10.7789 0.793902
thorax 2.34504 5.54639 -4.7034
lowerneck -0.747231 16.1483 8.69331
upperneck 2.86715 21.6431 -6.34575
head 2.83649 10.8064 -2.60049
rclavicle -1.28812e-013 2.22639e-014
rhumerus -19.6491 20.8098 -80.2844
rradius 75.5854
rwrist -0.222952
rhand -33.6535 9.39457
rfingers 7.12502
rthumb -6.84508 -20.4748
lclavicle -1.28812e-013 2.22639e-014
lhumerus -51.9913 -26.2336 91.7857
lradius 63.0622
lwrist 11.9126
lhand -19.3247 15.4296
lfingers 7.12502
lthumb 6.99176 45.2941
rfemur 4.83749 -8.68052 31.7314
rtibia 27.0735
rfoot -24.7674 -5.45783
rtoes 9.58952
lfemur -37.4698 8.0672 -21.0132
ltibia 40.59
lfoot -6.54909 -6.02604
ltoes -8.2054
566
root 28.8076 16.4759 -7.13606 35.5257 -80.4211 -31.2713
lowerback 3.69623 7.9947 9.8506
upperback 2.64831 10.8347 0.701446
thorax 2.40029 5.57559 -4.67096
lowerneck -0.741256 16.1606 8.68447
upperneck 2.8987 21.6537 -6.21743
head 2.82806 10.8133 -2.55859
rclavicle -7.82218e-014 4.77083e-014
rhumerus -19.9051 20.9538 -80.343
rradius 75.6544
rwrist -0.198046
rhand -33.7269 9.48
rfingers 7.12502
rthumb -6.91594 -20.387
lclavicle -7.82218e-014 4.77083e-014
lhumerus -52.5207 -26.3118 91.6569
lradius 63.3388
lwrist 12.1531
lhand -19.2295 15.4818
lfingers 7.12502
lthumb 7.08359 45.3432
rfemur 4.64975 -8.85981 31.3369
rtibia 28.6012
rfoot -23.7501 -5.19795
rtoes 8.63103
lfemur -36.1212 7.94977 -21.2508
ltibia 39.574
lfoot -6.54546 -5.58699
ltoes -5.70826
